<?xml version="1.0"?>
<svg xmlns="http://www.w3.org/2000/svg" version="1.1" viewBox="0 0 185 118.6" width="185" height="118.6">
  <g>
    <polygon fill="#141418" points="89.2 11.3 36.1 84.5 142.3 84.5 89.2 11.3"></polygon>
    <polygon fill="#6366F1" points="88.9 11.3 35.8 84.5 72.8 84.5 88.9 11.3"></polygon>
    <g>
      <path fill="#EC4899" d="M1.8,69s0,0,0,0c-.8,0-2-1.1-1.8-2.4.2-1.3,1.8-2.4,2.7-2.3l82.5,5.5-.9,4.8L1.8,69Z"></path>
      <path fill="#F59E0B" d="M2.1,57.2c-.9-.1-2.1-1.5-1.8-2.8.3-1.3,2-2.1,2.9-1.9l82.8,13.2-.9,4.8L2.1,57.2Z"></path>
      <path fill="#10B981" d="M2.9,43.8c-.9-.2-2.1-1.7-1.8-2.9.4-1.3,2.2-2,3.1-1.7l82.6,22.5-1,4.8L2.9,43.8Z"></path>
      <path fill="#06B6D4" d="M4.5,26c-.8-.4-1.9-1.8-1.5-3.1.4-1.3,2.3-1.9,3.1-1.5l81.3,35.9-1,4.9L4.5,26Z"></path>
      <path fill="#6366F1" d="M5.7,7.5c-.8-.5-1.7-2.1-1.1-3.3.5-1.2,2.3-1.6,3.1-1.1l80.6,50.3-.9,5.1L5.7,7.5Z"></path>
    </g>
    <line fill="none" stroke="#EF4444" stroke-width="5" stroke-linecap="round" x1="98.6" y1="68.8" x2="171.9" y2="68.8"></line>
  </g>
  </svg>